<svg id="Layer_1" enable-background="new 0 0 512 512" height="512" viewBox="0 0 512 512" width="512" xmlns="http://www.w3.org/2000/svg" xmlns:xlink="http://www.w3.org/1999/xlink"><radialGradient id="SVGID_1_" cx="255.78" cy="363.03" gradientTransform="matrix(1 0 0 -1 0 512)" gradientUnits="userSpaceOnUse" r="120.84"><stop offset=".88" stop-opacity="0"/><stop offset="1" stop-opacity=".3"/></radialGradient><g id="Layer_2_00000039829411027622781020000005461404411434213259_"><g id="Indonesia"><path d="m256 334c-112.1 0-203 39.9-203 89s90.9 89 203 89 203-39.9 203-89-90.9-89-203-89zm129.9 120.8c-33.6 14.8-81 23.2-129.9 23.2s-96.2-8.5-129.9-23.2c-28.7-12.6-39.1-25.9-39.1-31.8s10.4-19.2 39.1-31.8c33.6-14.8 81-23.2 129.9-23.2s96.2 8.5 129.9 23.2c28.7 12.6 39.1 25.9 39.1 31.8s-10.4 19.2-39.1 31.8z" fill="#ed1b24"/><path d="m410.2 154.8c-.1 19.8-3.5 39.2-9.1 58.2-9.9 33.8-25.3 65.1-43.3 95.2-19.1 31.7-40.6 61.9-64.4 90.3-4.3 5.1-8.7 10.2-13.1 15.3-11.7 13.6-32.3 15.1-45.8 3.3-1.1-1-2.2-2.1-3.2-3.2-19-21.7-36.8-44.5-53.4-68.2-16.4-23.3-31.1-47.8-43.9-73.3-8-15.9-14.8-32.5-20.4-49.4-5.9-18.2-10.2-36.9-11.5-56.1-2.4-36.1 5.6-69.7 26.2-99.7 22.4-32.7 53.2-53.8 91.8-62.9 32.9-7.8 65.2-5.2 96.4 8.1 37.8 16.1 64.8 43.3 81.2 80.8 8.5 19.4 12.8 40.4 12.5 61.6z" fill="#d9d9d9"/><path d="m410.2 154.8c-.1 19.8-3.5 39.2-9.1 58.2-9.9 33.8-25.3 65.1-43.3 95.2-19.1 31.7-40.6 61.9-64.4 90.3-4.3 5.1-8.7 10.2-13.1 15.3-5.4 6.2-12.9 10.2-21.1 11v-424.8c19.8.4 39.3 4.6 57.4 12.4 37.8 16.1 64.8 43.3 81.2 80.8 8.5 19.4 12.7 40.4 12.4 61.6z" fill="#bfbfbf"/><circle cx="255.8" cy="149" fill="#999" r="133.4"/><circle cx="255.8" cy="149" fill="#fff" r="120.8"/><path d="m376.6 148.7h-241.6c.6-66.7 55.2-120.3 121.9-119.7 65.9.6 119.2 53.8 119.7 119.7z" fill="#fe0000"/><path d="m255.8 28.1c-66.7 0-120.8 54.1-120.8 120.8s54 120.9 120.8 120.9c66.7 0 120.8-54.1 120.8-120.8s-54.1-120.9-120.8-120.9zm0 227.6c-59 0-106.7-47.8-106.7-106.7s47.7-106.8 106.7-106.8 106.7 47.8 106.7 106.7c-.1 59-47.8 106.7-106.7 106.8z" fill="url(#SVGID_1_)"/></g></g></svg>